<svg width="1440" height="440" viewBox="0 0 1440 440" fill="none" xmlns="http://www.w3.org/2000/svg">
<path d="M659.375 440C668.629 426.852 671.994 412.524 671.994 398.533C672.33 371.309 659.038 342.062 617.985 324.279C572.726 304.641 507.108 303.966 447.211 304.219C411.037 304.388 374.863 304.556 338.689 304.809C302.01 304.978 264.827 305.146 229.326 300.595C193.825 296.044 159.502 286.098 140.826 270.253C122.487 254.66 121.309 235.444 124.001 217.407C126.693 199.286 132.75 181.081 126.525 163.213C120.636 145.26 99.268 127.308 64.7766 121.83C46.942 119.048 27.7614 119.807 9.42205 121.661C6.22528 121.998 3.19677 122.335 0 122.757V440H659.375Z" fill="#FFCC24"/>
<path d="M1092.03 0C1088.24 14.8855 1089.45 31.5844 1098.25 44.2031C1108.1 58.4085 1125.53 65.3601 1142.36 69.5159C1186.47 80.5478 1233.08 78.4321 1277.19 89.3884C1304.78 96.2645 1334.19 111.83 1340.94 139.41C1347.91 168.047 1327.37 196.156 1325.7 225.549C1324.26 250.862 1337.45 275.646 1356.93 291.816C1376.41 307.986 1401.57 316.373 1426.81 319.244C1431.13 319.698 1435.53 320 1440 320V0H1092.03Z" fill="#FFCC24"/>
<path d="M437.312 -8.22197C441.121 9.48433 448.631 26.4042 457.608 41.7643C474.905 71.7707 500.314 99.1798 532.249 104.19C567.392 109.809 600.631 87.3514 630.415 65.8983C648.393 52.9248 666.37 39.9512 684.293 26.885C702.523 13.733 721.005 0.402501 741.674 -7.15145C747.671 -9.29933 753.854 -10.9251 760.138 -11.9692L667.293 -170.845L437.312 -8.22197Z" fill="#FFCC24"/>
<path d="M1190.33 500.149C1187.77 482.172 1181.47 464.666 1173.6 448.591C1158.45 417.208 1135.04 387.727 1103.55 380.025C1068.9 371.445 1034.19 391.019 1002.99 409.884C984.16 421.296 965.327 432.708 946.542 444.216C927.446 455.784 908.085 467.509 886.948 473.289C880.819 474.922 874.541 476.019 868.202 476.527L949.644 642.799L1190.33 500.149Z" fill="#FFCC24"/>
</svg>
