<svg width="24" height="24" viewBox="0 0 24 24" fill="none" xmlns="http://www.w3.org/2000/svg">
<g clip-path="url(#clip0)">
<path d="M22.6756 24C23.407 24 24.0001 23.4069 24.0001 22.6754V1.32457C24.0001 0.592862 23.4069 0 22.6756 0H1.32481C0.593107 0 0.000244141 0.592952 0.000244141 1.32457V22.6753C0.000244141 23.4069 0.593107 23.9999 1.32481 23.9999H22.6756V24Z" fill="#485A96"/>
<path d="M16.5593 24V14.7059H19.6789L20.1459 11.0838H16.5592V8.77123C16.5592 7.72255 16.8503 7.00793 18.3542 7.00793L20.2722 7.00703V3.76746C19.9404 3.7234 18.8018 3.62476 17.4774 3.62476C14.712 3.62476 12.8188 5.3127 12.8188 8.41262V11.0838H9.69116V14.7059H12.8188V23.9999H16.5593V24Z" fill="white"/>
</g>
<defs>
<clipPath id="clip0">
<rect width="24" height="24" fill="white"/>
</clipPath>
</defs>
</svg>
