<svg width="43" height="48" viewBox="0 0 43 48" fill="none" xmlns="http://www.w3.org/2000/svg">
<path fill-rule="evenodd" clip-rule="evenodd" d="M4.98426 43.2L6.97423 19.2H9.55426V26.4H14.3321V19.2H28.6656V26.4H33.4434V19.2H36.0234L38.0134 43.2H4.98426ZM14.3321 12C14.3321 8.0304 17.5476 4.8 21.4988 4.8C25.4501 4.8 28.6656 8.0304 28.6656 12V14.4H14.3321V12ZM40.603 16.6008C40.4979 15.3552 39.4635 14.4 38.2212 14.4H33.4434V12C33.4434 5.3832 28.0851 0 21.4988 0C14.9126 0 9.55426 5.3832 9.55426 12V14.4H4.77643C3.53419 14.4 2.49979 15.3552 2.39707 16.6008L0.00815149 45.4008C-0.0467936 46.068 0.177765 46.7328 0.62927 47.2248C1.08316 47.7192 1.71862 48 2.38751 48H40.6102C41.2791 48 41.9145 47.7192 42.3684 47.2248C42.8199 46.7328 43.0469 46.068 42.9919 45.4008L40.603 16.6008Z" fill="#F44E4E"/>
</svg>
