<svg width="95" height="32" viewBox="0 0 95 32" fill="none" xmlns="http://www.w3.org/2000/svg">
<g clip-path="url(#clip0)">
<path d="M26.9661 6.5979H31.7814C34.2579 6.5979 35.9089 8.11543 35.9089 10.3587C35.9089 12.668 34.1891 14.0536 31.7126 14.0536H30.0616V17.2206H27.0349V6.5979H26.9661ZM31.0247 11.8103C32.0566 11.8103 32.7445 11.2165 32.7445 10.3587C32.7445 9.43501 32.1254 8.90718 31.0247 8.90718H29.9929V11.8103H31.0247Z" fill="#242729"/>
<path d="M36.9407 6.5979H41.756C44.2325 6.5979 45.8835 7.91749 45.8835 10.2268C45.8835 11.6783 45.1956 12.734 44.0261 13.2618L46.2962 17.2206H42.9943L41.0681 13.7237H40.0363V17.2206H37.0095V6.5979H36.9407ZM41.0681 11.4804C42.1 11.4804 42.7879 11.1505 42.7879 10.2268C42.7879 9.30305 42.1688 8.90718 41.0681 8.90718H40.0363V11.4804H41.0681Z" fill="#242729"/>
<path d="M52.4873 17.3525C49.4605 17.3525 47.1216 15.4391 47.1216 11.8762C47.1216 8.31331 49.4605 6.3999 52.4873 6.3999C55.5141 6.3999 57.8529 8.31331 57.8529 11.8762C57.8529 15.4391 55.5141 17.3525 52.4873 17.3525ZM52.4873 8.9731C50.9739 8.9731 50.2172 10.0288 50.2172 11.9422C50.2172 13.8556 51.0427 14.9112 52.4873 14.9112C53.9319 14.9112 54.7574 13.8556 54.7574 11.9422C54.7574 10.0288 54.0007 8.9731 52.4873 8.9731Z" fill="#242729"/>
<path d="M27.1035 19.7278H31.9189C34.3953 19.7278 36.0463 21.2453 36.0463 23.4886C36.0463 25.7979 34.3265 27.1835 31.8501 27.1835H30.1991V30.3505H27.1723V19.7278H27.1035ZM31.1622 25.0061C32.194 25.0061 32.8819 24.4123 32.8819 23.5546C32.8819 22.6309 32.2628 22.103 31.1622 22.103H30.1303V25.0061H31.1622Z" fill="#242729"/>
<path d="M42.4438 30.5485C39.417 30.5485 37.0781 28.6351 37.0781 25.0722C37.0781 21.5093 39.417 19.5959 42.4438 19.5959C45.4706 19.5959 47.8095 21.5093 47.8095 25.0722C47.8095 28.6351 45.4706 30.5485 42.4438 30.5485ZM42.4438 22.1032C40.9304 22.1032 40.1737 23.1588 40.1737 25.0722C40.1737 26.9856 40.9992 28.0413 42.4438 28.0413C43.9572 28.0413 44.7139 26.9856 44.7139 25.0722C44.7139 23.1588 43.9572 22.1032 42.4438 22.1032Z" fill="#242729"/>
<path d="M49.2542 19.7278H52.2809V24.0164H52.4185L55.7205 19.7278H59.2288L55.5141 24.4783L59.3664 30.3505H55.7205L53.244 26.3917L52.2809 27.6453V30.3505H49.2542V19.7278Z" fill="#242729"/>
<path d="M69.6849 19.7278V26.7216C69.6849 29.1628 67.8275 30.4824 64.8695 30.4824C61.9803 30.4824 60.0542 29.1628 60.0542 26.7216V19.7278H63.081V26.6556C63.081 27.4474 63.7689 27.9752 64.8695 27.9752C65.9702 27.9752 66.6581 27.4474 66.6581 26.6556V19.7278H69.6849Z" fill="#242729"/>
<path d="M71.1296 19.7278H75.945C78.4214 19.7278 80.0724 21.2453 80.0724 23.4886C80.0724 25.7979 78.3527 27.1835 75.8762 27.1835H74.2252V30.3505H71.1984V19.7278H71.1296ZM75.1883 25.0061C76.2201 25.0061 76.9081 24.4123 76.9081 23.5546C76.9081 22.6309 76.2889 22.103 75.1883 22.103H74.1564V25.0061H75.1883Z" fill="#242729"/>
<path d="M81.1042 19.7278H84.131V24.0164H84.2686L87.5706 19.7278H91.0789L87.3642 24.4783L91.2165 30.3505H87.6394L85.1629 26.3917L84.1998 27.6453V30.3505H81.173V19.7278H81.1042Z" fill="#242729"/>
<path d="M94.9999 30.3505H91.9731V19.7278H94.9999V30.3505Z" fill="#242729"/>
<path d="M12.0384 7.58788C11.9008 7.65386 11.7632 7.5219 11.6944 7.38994L10.4562 2.96932C9.97463 1.18788 8.11728 0.132207 6.25993 0.594063C4.47137 1.05592 3.37072 2.83736 3.85225 4.6188L5.09049 9.03942C5.15928 9.17138 5.0217 9.30334 4.88412 9.36932C4.74653 9.4353 4.60895 9.30334 4.54016 9.17138L3.37072 4.75076C2.7516 2.7054 4.05863 0.660042 6.19114 0.132207C8.32365 -0.395628 10.4562 0.792001 11.0065 2.83736L12.2447 7.25798C12.2447 7.38994 12.1759 7.5219 12.0384 7.58788Z" fill="#A2112A"/>
<path d="M16.3797 5.59374L0.0754395 9.68994L5.28748 28.7747L21.5918 24.6785L16.3797 5.59374Z" fill="#E03F3F"/>
<path d="M16.3047 5.57965L8.18579 7.61938L13.3978 26.7041L21.5167 24.6644L16.3047 5.57965Z" fill="#E03F3F"/>
<path d="M17.4249 7.258L-0.0107422 11.6384L5.54993 31.9997L22.9855 27.6193L17.4249 7.258Z" fill="#FF6161"/>
<path d="M17.4263 7.228L8.7085 9.41821L14.2692 29.7795L22.987 27.5893L17.4263 7.228Z" fill="#F44E4E"/>
<path d="M17.4041 7.258L13.8958 7.06006L14.1709 8.04975L17.4041 7.258Z" fill="#FF6161"/>
<path d="M13.8958 7.05994L16.3722 5.6084L16.785 7.1919L13.8958 7.05994Z" fill="#F44E4E"/>
<path d="M0 11.6123L2.958 9.83081L3.23316 10.8205L0 11.6123Z" fill="#F44E4E"/>
<path d="M2.95806 9.83093L0.0688477 9.69897L0.481592 11.3485L2.95806 9.83093Z" fill="#FF6161"/>
<path d="M11.3504 19.2661C9.21793 19.794 7.08542 18.6063 6.5351 16.561L5.29686 12.1404C5.22807 12.0084 5.36565 11.8764 5.50323 11.8105C5.64082 11.7445 5.7784 11.8764 5.84719 12.0084L7.08542 16.429C7.56696 18.2105 9.42431 19.2661 11.2817 18.8043C13.139 18.3424 14.2397 16.561 13.7581 14.7795L12.5199 10.3589C12.4511 10.227 12.5887 10.095 12.7263 10.029C12.8638 9.96304 13.0014 10.095 13.0702 10.227L14.3084 14.6476C14.79 16.627 13.483 18.7383 11.3504 19.2661Z" fill="#A2112A"/>
</g>
<defs>
<clipPath id="clip0">
<rect width="95" height="32" fill="white"/>
</clipPath>
</defs>
</svg>
