<svg width="48" height="48" viewBox="0 0 48 48" fill="none" xmlns="http://www.w3.org/2000/svg">
<path fill-rule="evenodd" clip-rule="evenodd" d="M24 43.2C13.4136 43.2 4.8 34.5864 4.8 24C4.8 13.4136 13.4136 4.8 24 4.8C34.5864 4.8 43.2 13.4136 43.2 24C43.2 34.5864 34.5864 43.2 24 43.2ZM24 0C10.7664 0 0 10.7664 0 24C0 37.2336 10.7664 48 24 48C37.2336 48 48 37.2336 48 24C48 10.7664 37.2336 0 24 0Z" fill="#F44E4E"/>
<path fill-rule="evenodd" clip-rule="evenodd" d="M26.4 12H21.6V21.6H12V26.4H21.6V36H26.4V26.4H36V21.6H26.4V12Z" fill="#F44E4E"/>
</svg>
