<svg width="18" height="18" viewBox="0 0 18 18" fill="none" xmlns="http://www.w3.org/2000/svg">
<path fill-rule="evenodd" clip-rule="evenodd" d="M9.0004 2.25C7.75953 2.25 6.7504 3.258 6.7504 4.5C6.7504 5.74088 7.75953 6.75 9.0004 6.75C10.2413 6.75 11.2504 5.74088 11.2504 4.5C11.2504 3.258 10.2413 2.25 9.0004 2.25ZM9.00038 9C6.51863 9 4.50038 6.98175 4.50038 4.5C4.50038 2.01825 6.51863 0 9.00038 0C11.4821 0 13.5004 2.01825 13.5004 4.5C13.5004 6.98175 11.4821 9 9.00038 9Z" fill="#F44E4E"/>
<path fill-rule="evenodd" clip-rule="evenodd" d="M2.42891 15.75H15.5723C14.8995 13.716 12.384 12.375 9.00004 12.375C5.61604 12.375 3.10166 13.716 2.42891 15.75ZM18 18H0V16.875C0 12.9004 3.70125 10.125 9 10.125C14.2999 10.125 18 12.9004 18 16.875V18Z" fill="#F44E4E"/>
</svg>
