<svg width="20" height="20" viewBox="0 0 20 20" fill="none" xmlns="http://www.w3.org/2000/svg">
<path fill-rule="evenodd" clip-rule="evenodd" d="M13 8C13 6.344 11.656 5 10 5C8.344 5 7 6.344 7 8C7 9.157 7.662 10.149 8.622 10.65L8 15H12L11.378 10.65C12.338 10.149 13 9.157 13 8Z" fill="#F44E4E"/>
<path fill-rule="evenodd" clip-rule="evenodd" d="M10 2C5.589 2 2 5.589 2 10C2 14.411 5.589 18 10 18C14.411 18 18 14.411 18 10C18 5.589 14.411 2 10 2ZM10 20C4.486 20 0 15.514 0 10C0 4.486 4.486 0 10 0C15.514 0 20 4.486 20 10C20 15.514 15.514 20 10 20Z" fill="#F44E4E"/>
</svg>
