<svg width="20" height="20" viewBox="0 0 20 20" fill="none" xmlns="http://www.w3.org/2000/svg">
<path fill-rule="evenodd" clip-rule="evenodd" d="M8.11894 14.2081C6.49312 14.2081 4.96372 13.5749 3.81387 12.425C2.66301 11.2752 2.02974 9.74578 2.02974 8.11894C2.02974 6.49312 2.66301 4.96372 3.81387 3.81387C4.96372 2.66301 6.49312 2.02974 8.11894 2.02974C9.74476 2.02974 11.2742 2.66301 12.424 3.81387C13.5749 4.96372 14.2081 6.49312 14.2081 8.11894C14.2081 9.74578 13.5749 11.2752 12.424 12.425C11.2742 13.5749 9.74476 14.2081 8.11894 14.2081ZM20 18.565L14.5278 13.0918C15.632 11.675 16.2379 9.94469 16.2379 8.11894C16.2379 5.95017 15.3925 3.9113 13.859 2.37885C12.3266 0.84437 10.2877 0 8.11894 0C5.95017 0 3.9113 0.84437 2.37885 2.37885C0.845385 3.9113 0 5.95017 0 8.11894C0 10.2877 0.845385 12.3266 2.37885 13.859C3.9113 15.3935 5.95017 16.2379 8.11894 16.2379C9.94469 16.2379 11.675 15.633 13.0918 14.5268L18.565 20L20 18.565Z" fill="#677075"/>
</svg>
