<svg width="118" height="40" viewBox="0 0 118 40" fill="none" xmlns="http://www.w3.org/2000/svg">
<g clip-path="url(#clip0)">
<path d="M33.4946 8.24756H39.4758C42.5518 8.24756 44.6025 10.1445 44.6025 12.9486C44.6025 15.8352 42.4664 17.5671 39.3904 17.5671H37.3397V21.5259H33.5801V8.24756H33.4946ZM38.5359 14.763C39.8176 14.763 40.672 14.0208 40.672 12.9486C40.672 11.7939 39.903 11.1342 38.5359 11.1342H37.2542V14.763H38.5359Z" fill="white"/>
<path d="M45.8842 8.24756H51.8653C54.9414 8.24756 56.992 9.89704 56.992 12.7836C56.992 14.5981 56.1376 15.9177 54.685 16.5775L57.5047 21.5259H53.4033L51.0109 17.1548H49.7292V21.5259H45.9696V8.24756H45.8842ZM51.0109 14.3507C52.2926 14.3507 53.147 13.9383 53.147 12.7836C53.147 11.629 52.378 11.1342 51.0109 11.1342H49.7292V14.3507H51.0109Z" fill="white"/>
<path d="M65.1948 21.6907C61.4352 21.6907 58.53 19.299 58.53 14.8454C58.53 10.3918 61.4352 8 65.1948 8C68.9544 8 71.8595 10.3918 71.8595 14.8454C71.8595 19.299 68.9544 21.6907 65.1948 21.6907ZM65.1948 11.2165C63.315 11.2165 62.3751 12.5361 62.3751 14.9278C62.3751 17.3196 63.4004 18.6392 65.1948 18.6392C66.9891 18.6392 68.0145 17.3196 68.0145 14.9278C68.0145 12.5361 67.0746 11.2165 65.1948 11.2165Z" fill="white"/>
<path d="M33.6654 24.6597H39.6466C42.7226 24.6597 44.7733 26.5566 44.7733 29.3607C44.7733 32.2473 42.6372 33.9793 39.5611 33.9793H37.5104V37.938H33.7508V24.6597H33.6654ZM38.7067 31.2576C39.9884 31.2576 40.8428 30.5153 40.8428 29.4432C40.8428 28.2885 40.0738 27.6287 38.7067 27.6287H37.425V31.2576H38.7067Z" fill="white"/>
<path d="M52.7198 38.1853C48.9602 38.1853 46.0551 35.7936 46.0551 31.34C46.0551 26.8864 48.9602 24.4946 52.7198 24.4946C56.4794 24.4946 59.3845 26.8864 59.3845 31.34C59.3845 35.7936 56.4794 38.1853 52.7198 38.1853ZM52.7198 27.6286C50.84 27.6286 49.9001 28.9482 49.9001 31.34C49.9001 33.7317 50.9254 35.0513 52.7198 35.0513C54.5996 35.0513 55.5395 33.7317 55.5395 31.34C55.5395 28.9482 54.5996 27.6286 52.7198 27.6286Z" fill="white"/>
<path d="M61.1788 24.6597H64.9384V30.0205H65.1093L69.2107 24.6597H73.5684L68.9544 30.5978L73.7393 37.938H69.2107L66.1347 32.9896L64.9384 34.5566V37.938H61.1788V24.6597Z" fill="white"/>
<path d="M86.5561 24.6597V33.4019C86.5561 36.4535 84.2491 38.103 80.5749 38.103C76.9862 38.103 74.5938 36.4535 74.5938 33.4019V24.6597H78.3533V33.3195C78.3533 34.3092 79.2078 34.9689 80.5749 34.9689C81.942 34.9689 82.7965 34.3092 82.7965 33.3195V24.6597H86.5561Z" fill="white"/>
<path d="M88.3505 24.6597H94.3316C97.4077 24.6597 99.4584 26.5566 99.4584 29.3607C99.4584 32.2473 97.3222 33.9793 94.2462 33.9793H92.1955V37.938H88.4359V24.6597H88.3505ZM93.3917 31.2576C94.6734 31.2576 95.5279 30.5153 95.5279 29.4432C95.5279 28.2885 94.7589 27.6287 93.3917 27.6287H92.1101V31.2576H93.3917Z" fill="white"/>
<path d="M100.74 24.6597H104.5V30.0205H104.67L108.772 24.6597H113.13L108.516 30.5978L113.3 37.938H108.857L105.781 32.9896L104.585 34.5566V37.938H100.825V24.6597H100.74Z" fill="white"/>
<path d="M118 37.938H114.24V24.6597H118V37.938Z" fill="white"/>
<path d="M14.953 9.48478C14.7821 9.56726 14.6112 9.40231 14.5257 9.23736L12.9877 3.71159C12.3896 1.48479 10.0826 0.165198 7.77556 0.742517C5.55398 1.31984 4.18685 3.54664 4.78497 5.77344L6.32299 11.2992C6.40843 11.4642 6.23754 11.6291 6.06665 11.7116C5.89576 11.7941 5.72487 11.6291 5.63942 11.4642L4.18685 5.93839C3.41785 3.38169 5.04131 0.824991 7.69011 0.165198C10.3389 -0.494596 12.9877 0.98994 13.6713 3.54664L15.2093 9.07241C15.2093 9.23736 15.1239 9.40231 14.953 9.48478Z" fill="#A2112A"/>
<path d="M20.3454 6.99206L0.09375 12.1123L6.56765 35.9682L26.8193 30.8479L20.3454 6.99206Z" fill="#FFC7C7"/>
<path d="M20.2522 6.97474L10.1677 9.52441L16.6416 33.3803L26.7261 30.8306L20.2522 6.97474Z" fill="#FFC7C7"/>
<path d="M21.6437 9.07281L-0.0131836 14.5483L6.89376 39.9999L28.5506 34.5244L21.6437 9.07281Z" fill="#FFFAFA"/>
<path d="M21.6453 9.03518L10.8169 11.7729L17.7238 37.2245L28.5523 34.4868L21.6453 9.03518Z" fill="#FFE0E0"/>
<path d="M21.6177 9.07213L17.26 8.82471L17.6018 10.0618L21.6177 9.07213Z" fill="#FFFAFA"/>
<path d="M17.26 8.82469L20.336 7.01025L20.8487 8.98963L17.26 8.82469Z" fill="#FFE0E0"/>
<path d="M0 14.5154L3.67415 12.2886L4.01593 13.5257L0 14.5154Z" fill="#FFE0E0"/>
<path d="M3.67415 12.2885L0.0854492 12.1235L0.598121 14.1854L3.67415 12.2885Z" fill="#FFFAFA"/>
<path d="M14.0986 24.0825C11.4498 24.7423 8.80095 23.2577 8.11738 20.701L6.57937 15.1753C6.49392 15.0103 6.66481 14.8454 6.8357 14.7629C7.00659 14.6804 7.17749 14.8454 7.26293 15.0103L8.80095 20.5361C9.39906 22.7629 11.7061 24.0825 14.0131 23.5052C16.3201 22.9278 17.6873 20.701 17.0891 18.4742L15.5511 12.9485C15.4657 12.7835 15.6366 12.6186 15.8075 12.5361C15.9784 12.4536 16.1492 12.6186 16.2347 12.7835L17.7727 18.3093C18.3708 20.7835 16.7474 23.4227 14.0986 24.0825Z" fill="#A2112A"/>
</g>
<defs>
<clipPath id="clip0">
<rect width="118" height="40" fill="white"/>
</clipPath>
</defs>
</svg>
